<svg xmlns="http://www.w3.org/2000/svg" viewBox="0 0 264.39 193.52"><defs><style>.cls-1{fill:#fff;}</style></defs><g id="Layer_2" data-name="Layer 2"><g id="Layer_1-2" data-name="Layer 1"><path class="cls-1" d="M97.64,40.29l-6.56,3.83c-2.42,1.42-4.83,2.87-7.27,4.25A1.48,1.48,0,0,0,83,49.88q0,27,0,53.94a1.47,1.47,0,0,0,.83,1.43Q105.7,118.62,127.61,132c1.81,1.1,3.62,2.19,5.41,3.33a1.38,1.38,0,0,0,1.49,0c3.23-2,6.49-3.91,9.74-5.85l1.33-.77a6.71,6.71,0,0,1-.05,2.15,40.25,40.25,0,0,0,0,15.43c.38,1.95.19,2.39-1.16,3a50.64,50.64,0,0,0-9.4,5.65c-.82.63-1.27.76-2,.31q-33-20.21-66.1-40.37a1.72,1.72,0,0,1-1-1.69q0-36.47,0-72.93a1.83,1.83,0,0,1,1-1.83Q90.4,24.75,113.86,11c.23-.13.47-.24.83-.42v58.3h32.8c0,.43.07.73.07,1,0,5,0,10,0,15,0,.86-.26,1.08-1.1,1.08q-15.22,0-30.47,0h-1.26v28a7.51,7.51,0,0,1-.79-.38c-5.16-3.29-10.31-6.61-15.49-9.87a1.66,1.66,0,0,1-.85-1.64q0-30.42,0-60.84Z"/><path class="cls-1" d="M122.69,26.59a.37.37,0,0,1-.56-.31v-1c0-5.79,0-11.57,0-17.36,0-1,.37-1.36,2-1.91A22.64,22.64,0,0,0,132.52,1c1.15-1.09,1.53-1.17,2.22-.74l43,26.26q11.7,7.14,23.4,14.28a1.37,1.37,0,0,1,.8,1.34q0,32.91,0,65.82v.41a.35.35,0,0,1-.53.31h0c-5.29-3-10.56-6.07-15.86-9.07a1.29,1.29,0,0,1-.69-1.39q0-23.58,0-47.16a.38.38,0,0,0-.18-.32q-25-15.21-49.93-30.5a1.2,1.2,0,0,0-1.45,0C129.82,22.34,126.34,24.41,122.69,26.59Z"/><path class="cls-1" d="M153.12,42.3a.4.4,0,0,1,.59-.34l.35.21c5,3.21,10,6.43,15.07,9.61a1.87,1.87,0,0,1,1,1.84q0,30,0,59.92v1.06a.4.4,0,0,0,.58.35l.45-.25c4.35-2.55,8.69-5.11,13.06-7.62a1.37,1.37,0,0,1,1.15-.06q8,4.53,16,9.12h0a.39.39,0,0,1,0,.67l-47.62,27.9a.39.39,0,0,1-.59-.34Z"/><path class="cls-1" d="M7.59,193.16H0v-.87a13.32,13.32,0,0,1,2.46-.72V173.78A7.9,7.9,0,0,1,0,173v-.87H7.59V173a6.46,6.46,0,0,1-1.08.45,11.13,11.13,0,0,1-1.17.3v7.83h9.42v-7.83c-.42-.1-.82-.21-1.19-.33a9,9,0,0,1-1.06-.42v-.87H20.1V173a5.08,5.08,0,0,1-1.18.46c-.44.11-.86.21-1.28.29v17.79a12.76,12.76,0,0,1,1.32.3,7.55,7.55,0,0,1,1.14.42v.87H12.51v-.87a10.93,10.93,0,0,1,2.25-.72v-8.4H5.34v8.4a11.13,11.13,0,0,1,1.17.3,8.65,8.65,0,0,1,1.08.42Z"/><path class="cls-1" d="M25.26,182.66a14.05,14.05,0,0,1,.64-4.34,10.24,10.24,0,0,1,1.87-3.45,8.25,8.25,0,0,1,3-2.26,10.38,10.38,0,0,1,8,0,8.34,8.34,0,0,1,3,2.26,10.22,10.22,0,0,1,1.86,3.45,14.78,14.78,0,0,1,0,8.67,10.22,10.22,0,0,1-1.86,3.45,8.37,8.37,0,0,1-3,2.27,10.38,10.38,0,0,1-8,0,8.28,8.28,0,0,1-3-2.27A10.24,10.24,0,0,1,25.9,187,14,14,0,0,1,25.26,182.66Zm3.21,0a15,15,0,0,0,.41,3.61,9.53,9.53,0,0,0,1.21,3,6.15,6.15,0,0,0,2,2A5.57,5.57,0,0,0,35,192a4.82,4.82,0,0,0,2.67-.74,5.78,5.78,0,0,0,1.87-2,10.24,10.24,0,0,0,1.11-3,16.66,16.66,0,0,0,.38-3.61,16.14,16.14,0,0,0-.39-3.62,9.23,9.23,0,0,0-1.2-2.95,6.18,6.18,0,0,0-2-2,5.57,5.57,0,0,0-2.91-.73,5.08,5.08,0,0,0-2.8.73,5.56,5.56,0,0,0-1.88,2A9.6,9.6,0,0,0,28.8,179,19,19,0,0,0,28.47,182.66Z"/><path class="cls-1" d="M61.35,193.16H52.92v-.87c.44-.16.89-.3,1.33-.42a14.45,14.45,0,0,1,1.46-.3V173.72H51.12L49.53,178h-.75c-.06-.4-.11-.86-.15-1.37s-.07-1-.11-1.56-.05-1.05-.07-1.56,0-1,0-1.36H65.85q0,.6,0,1.35c0,.5,0,1-.08,1.54s-.06,1-.09,1.56-.07,1-.13,1.4h-.79l-1.58-4.29H58.59v17.85l1.45.3a7.15,7.15,0,0,1,1.31.42Z"/><path class="cls-1" d="M84.21,172.16c0,.8-.06,1.6-.11,2.41S84,176.2,83.88,177H83.1l-1.23-3.3H75.33v7.95h4.89l1.17-2.22h.75a51,51,0,0,1,0,6.06h-.75l-1.17-2.28H75.33v8.37h6.9L83.7,188h.75q.21,1.26.3,2.55a22.68,22.68,0,0,1,0,2.61H70v-.87a9.92,9.92,0,0,1,2.46-.72V173.78a12.42,12.42,0,0,1-1.23-.32c-.42-.13-.83-.27-1.23-.43v-.87Z"/><path class="cls-1" d="M90.15,172.16h8.22V173c-.48.18-1,.33-1.44.46a10.49,10.49,0,0,1-1.44.29V191.6h6.9l1.77-4.83h.78c.06.42.11.9.16,1.45s.09,1.12.12,1.71,0,1.17,0,1.73,0,1.06,0,1.5H90.15v-.87a7.68,7.68,0,0,1,1.32-.48q.6-.15,1.14-.24V173.78a10.61,10.61,0,0,1-1.32-.32,8.79,8.79,0,0,1-1.14-.43Z"/><path class="cls-1" d="M119.31,172.16h8.22V173c-.48.18-1,.33-1.44.46a10.49,10.49,0,0,1-1.44.29V191.6h6.9l1.77-4.83h.78c.06.42.11.9.16,1.45s.09,1.12.12,1.71.05,1.17.05,1.73,0,1.06,0,1.5H119.31v-.87a7.68,7.68,0,0,1,1.32-.48q.6-.15,1.14-.24V173.78a10.61,10.61,0,0,1-1.32-.32,8.79,8.79,0,0,1-1.14-.43Z"/><path class="cls-1" d="M152.7,172.16c0,.8-.06,1.6-.11,2.41s-.12,1.63-.22,2.45h-.78l-1.23-3.3h-6.54v7.95h4.89l1.17-2.22h.75a51,51,0,0,1,0,6.06h-.75l-1.17-2.28h-4.89v8.37h6.9l1.47-3.6h.75q.21,1.26.3,2.55a22.68,22.68,0,0,1,0,2.61H138.48v-.87a9.92,9.92,0,0,1,2.46-.72V173.78a12.42,12.42,0,0,1-1.23-.32c-.42-.13-.83-.27-1.23-.43v-.87Z"/><path class="cls-1" d="M176,191.72a11.28,11.28,0,0,1-1.34.64,17.06,17.06,0,0,1-1.62.57q-.86.25-1.71.42a8.47,8.47,0,0,1-1.6.17,13.52,13.52,0,0,1-4.32-.65,8.36,8.36,0,0,1-3.27-2,8.89,8.89,0,0,1-2.09-3.37,14.37,14.37,0,0,1-.73-4.86,13.12,13.12,0,0,1,.85-5,9.33,9.33,0,0,1,2.28-3.38,8.7,8.7,0,0,1,3.24-1.89,12,12,0,0,1,3.71-.58,18.58,18.58,0,0,1,3.34.25,9.07,9.07,0,0,1,2.39.77q0,.45,0,1.11t-.09,1.38c0,.48-.09.95-.15,1.42s-.12.89-.18,1.25h-.78l-1.56-4.32a3,3,0,0,0-1.11-.24c-.52,0-1-.06-1.52-.06a7.33,7.33,0,0,0-2.84.55,6.15,6.15,0,0,0-2.35,1.71,8.62,8.62,0,0,0-1.6,2.91,12.8,12.8,0,0,0-.6,4.13,11.82,11.82,0,0,0,.58,3.84,8.87,8.87,0,0,0,1.62,2.92A7.21,7.21,0,0,0,167,191.3a6.94,6.94,0,0,0,3,.66,5.5,5.5,0,0,0,1.16-.12,8.81,8.81,0,0,0,1-.29,4.33,4.33,0,0,0,.79-.34,2.28,2.28,0,0,0,.44-.3v-6.06a7.14,7.14,0,0,1-1.49-.27c-.47-.14-.93-.29-1.39-.45v-.87h7.35v.87a4,4,0,0,1-.72.39,6.2,6.2,0,0,1-1.14.33Z"/><path class="cls-1" d="M196.2,172.16c0,.8-.06,1.6-.11,2.41s-.12,1.63-.22,2.45h-.78l-1.23-3.3h-6.54v7.95h4.89l1.17-2.22h.75a51,51,0,0,1,0,6.06h-.75l-1.17-2.28h-4.89v8.37h6.9l1.47-3.6h.75q.21,1.26.3,2.55a22.68,22.68,0,0,1,0,2.61H182v-.87a9.92,9.92,0,0,1,2.46-.72V173.78a12.42,12.42,0,0,1-1.23-.32c-.42-.13-.83-.27-1.23-.43v-.87Z"/><path class="cls-1" d="M215.88,172.16h6.48V173a9.28,9.28,0,0,1-2.46,1.2v19.29h-1.71L207.3,177l-1.17-2.34H206l.27,2.34v14.25a7.77,7.77,0,0,1,2.31,1v.87h-6.48v-.87a8.28,8.28,0,0,1,1.15-.59c.41-.17.85-.32,1.31-.46V174.05c-.4-.16-.8-.33-1.19-.51s-.75-.36-1.09-.54v-.84h5.07l9.45,14.25,1.38,2.58h.12l-.15-2.58V174.23c-.42-.18-.83-.37-1.22-.57a12.48,12.48,0,0,1-1.09-.63Z"/><path class="cls-1" d="M226.8,193.16v-.87a9.92,9.92,0,0,1,2.46-.72V173.78c-.46-.1-.9-.22-1.32-.35s-.8-.26-1.14-.4v-.87h3.06l1.2,0,1.42-.08,1.41-.09c.45,0,.83,0,1.13,0q5.1,0,7.84,2.73t2.75,7.74a13.79,13.79,0,0,1-.68,4.39,9.36,9.36,0,0,1-2.05,3.5,9.56,9.56,0,0,1-3.5,2.31,13.47,13.47,0,0,1-5,.84c-.3,0-.64,0-1-.05l-1.2-.09-1.28-.09c-.43,0-.83,0-1.21,0Zm7.8-19.68h-1.5a6.25,6.25,0,0,0-1.14.11v18.18a4.27,4.27,0,0,0,.54,0l.84,0,.85,0h.59a7.28,7.28,0,0,0,3.51-.78,6.76,6.76,0,0,0,2.35-2.09,8.87,8.87,0,0,0,1.34-3,15,15,0,0,0,.42-3.6,12.26,12.26,0,0,0-.41-3,8.78,8.78,0,0,0-1.32-2.88,7.14,7.14,0,0,0-2.41-2.14A7.39,7.39,0,0,0,234.6,173.48Z"/><path class="cls-1" d="M254.37,191.09a3.06,3.06,0,0,0,.93.61A4.37,4.37,0,0,0,257,192a6.17,6.17,0,0,0,1.8-.26,4.25,4.25,0,0,0,1.45-.75,3.67,3.67,0,0,0,1-1.2,3.46,3.46,0,0,0,.36-1.6,2.88,2.88,0,0,0-.74-2A7.48,7.48,0,0,0,259,184.7c-.73-.42-1.52-.83-2.38-1.23a13.26,13.26,0,0,1-2.39-1.43,7.5,7.5,0,0,1-1.83-2,5.28,5.28,0,0,1-.73-2.89,5.38,5.38,0,0,1,.45-2.25,4.68,4.68,0,0,1,1.27-1.68,5.93,5.93,0,0,1,2-1.07,8.14,8.14,0,0,1,2.55-.37,18.11,18.11,0,0,1,3.34.28,9.83,9.83,0,0,1,2.39.71,10.94,10.94,0,0,1-.08,1.18c0,.45-.11.92-.18,1.4s-.14.94-.22,1.39-.16.85-.24,1.19h-.78l-1.2-4.11a5.39,5.39,0,0,0-1.38-.36,12.52,12.52,0,0,0-1.77-.12,3.52,3.52,0,0,0-2.48.85,3.06,3.06,0,0,0-.94,2.39,3,3,0,0,0,.74,2.07,7.58,7.58,0,0,0,1.85,1.5c.75.44,1.55.86,2.4,1.27a15.06,15.06,0,0,1,2.4,1.43,7.53,7.53,0,0,1,1.86,1.92,4.9,4.9,0,0,1,.74,2.76,6,6,0,0,1-.5,2.46,5.19,5.19,0,0,1-1.42,1.89,6.51,6.51,0,0,1-2.28,1.2,10.29,10.29,0,0,1-3.06.42,11.79,11.79,0,0,1-3.39-.45,6.5,6.5,0,0,1-2.13-1c0-.34,0-.75.1-1.23s.11-1,.18-1.49.15-1,.23-1.48.16-.89.24-1.23h.78Z"/></g></g></svg>